<svg width="231" height="55" viewBox="0 0 231 55" fill="none" xmlns="http://www.w3.org/2000/svg">
<path d="M54.782 37.712C56.7632 35.7535 57.1693 35.0984 57.1693 33.8609C57.1693 32.9367 56.7454 31.9691 56.1055 31.2729L62.9286 24.6758C66.1614 27.7757 67.629 32.3649 66.5453 36.8107C65.8722 39.5716 64.8349 41.2236 62.0677 43.94C59.4575 46.5029 58.5121 47.0953 57.0331 47.0953C53.3578 47.0953 50.9574 43.6874 52.4268 40.5557C52.675 40.0268 53.7347 38.7471 54.782 37.712Z" fill="#6144BD"/>
<path d="M54.9069 30.43C54.1383 30.1382 52.4412 29.959 51.6494 30.5059C51.3783 30.6931 48.4342 33.3926 44.837 36.8217L38.0518 30.2612C44.9212 23.693 45.6533 23.0584 47.2146 22.3212C51.3071 20.3888 55.6044 20.3949 59.5774 22.3387C60.8382 22.9556 61.9623 23.7492 62.9286 24.6758L56.1055 31.2729C55.7584 30.8953 55.3478 30.5976 54.9069 30.43Z" fill="#C09EFF"/>
<path d="M43.821 37.7932C37.0454 44.2907 36.3348 44.9071 34.7713 45.6447C29.2872 48.2316 22.886 47.1428 18.8238 43.1135L22.2499 39.8009L25.676 36.4883C26.6497 37.4701 28.1485 37.9847 29.6238 37.6308C30.4688 37.4281 31.4937 36.5319 38.0518 30.2612L44.837 36.8217C44.5034 37.1397 44.1642 37.464 43.821 37.7932Z" fill="#B484FF"/>
<path d="M16.4929 27.7766C17.4078 26.0973 21.5895 21.8384 22.8935 21.2578C24.9598 20.3378 27.6648 21.1325 28.9501 23.0369C29.5838 23.9756 29.8315 25.539 29.5299 26.6964C29.3114 27.536 28.8948 28.0927 27.2704 29.716C25.2505 31.7349 24.5904 32.7774 24.5904 33.9491C24.5904 34.9283 25.0106 35.8173 25.676 36.4883L22.2499 39.8009L18.8238 43.1135C18.4074 42.7004 18.0155 42.2564 17.6517 41.7823C14.4479 37.6063 14.0115 32.3316 16.4929 27.7766Z" fill="#6144BD"/>
<path d="M37.7489 17.375C37.7489 19.7912 35.7231 21.75 33.2241 21.75C30.7251 21.75 28.6992 19.7912 28.6992 17.375C28.6992 14.9588 30.7251 13 33.2241 13C35.7231 13 37.7489 14.9588 37.7489 17.375Z" fill="#6144BD"/>
<path d="M52.9072 50.625C52.9072 53.0412 50.8813 55 48.3823 55C45.8833 55 43.8575 53.0412 43.8575 50.625C43.8575 48.2088 45.8833 46.25 48.3823 46.25C50.8813 46.25 52.9072 48.2088 52.9072 50.625Z" fill="#C09EFF"/>
<path d="M84.0254 38.708C84.0254 38.3564 83.9375 38.0391 83.7617 37.7559C83.5859 37.4629 83.249 37.1992 82.751 36.9648C82.2627 36.7305 81.54 36.5156 80.583 36.3203C79.7432 36.1348 78.9717 35.915 78.2686 35.6611C77.5752 35.3975 76.9795 35.0801 76.4814 34.709C75.9834 34.3379 75.5977 33.8984 75.3242 33.3906C75.0508 32.8828 74.9141 32.2969 74.9141 31.6328C74.9141 30.9883 75.0557 30.3779 75.3389 29.8018C75.6221 29.2256 76.0273 28.7178 76.5547 28.2783C77.082 27.8389 77.7217 27.4922 78.4736 27.2383C79.2354 26.9844 80.085 26.8574 81.0225 26.8574C82.3506 26.8574 83.4883 27.082 84.4355 27.5312C85.3926 27.9707 86.125 28.5713 86.6328 29.333C87.1406 30.085 87.3945 30.9346 87.3945 31.8818H83.8643C83.8643 31.4619 83.7568 31.0713 83.542 30.71C83.3369 30.3389 83.0244 30.041 82.6045 29.8164C82.1846 29.582 81.6572 29.4648 81.0225 29.4648C80.417 29.4648 79.9141 29.5625 79.5137 29.7578C79.123 29.9434 78.8301 30.1875 78.6348 30.4902C78.4492 30.793 78.3564 31.125 78.3564 31.4863C78.3564 31.75 78.4053 31.9893 78.5029 32.2041C78.6104 32.4092 78.7861 32.5996 79.0303 32.7754C79.2744 32.9414 79.6064 33.0977 80.0264 33.2441C80.4561 33.3906 80.9932 33.5322 81.6377 33.6689C82.8486 33.9229 83.8887 34.25 84.7578 34.6504C85.6367 35.041 86.3105 35.5488 86.7793 36.1738C87.248 36.7891 87.4824 37.5703 87.4824 38.5176C87.4824 39.2207 87.3311 39.8652 87.0283 40.4512C86.7354 41.0273 86.3057 41.5303 85.7393 41.96C85.1729 42.3799 84.4941 42.707 83.7031 42.9414C82.9219 43.1758 82.043 43.293 81.0664 43.293C79.6309 43.293 78.415 43.0391 77.4189 42.5312C76.4229 42.0137 75.666 41.3545 75.1484 40.5537C74.6406 39.7432 74.3867 38.9033 74.3867 38.0342H77.7998C77.8389 38.6885 78.0195 39.2109 78.3418 39.6016C78.6738 39.9824 79.084 40.2607 79.5723 40.4365C80.0703 40.6025 80.583 40.6855 81.1104 40.6855C81.7451 40.6855 82.2773 40.6025 82.707 40.4365C83.1367 40.2607 83.4639 40.0264 83.6885 39.7334C83.9131 39.4307 84.0254 39.0889 84.0254 38.708ZM94.0596 20.5V43H90.5439V20.5H94.0596ZM93.4443 34.4893L92.3018 34.4746C92.3115 33.3809 92.4629 32.3701 92.7559 31.4424C93.0586 30.5146 93.4785 29.709 94.0156 29.0254C94.5625 28.332 95.2168 27.7998 95.9785 27.4287C96.7402 27.0479 97.585 26.8574 98.5127 26.8574C99.2939 26.8574 99.9971 26.9648 100.622 27.1797C101.257 27.3945 101.804 27.7412 102.263 28.2197C102.722 28.6885 103.068 29.3037 103.303 30.0654C103.547 30.8174 103.669 31.7354 103.669 32.8193V43H100.124V32.79C100.124 32.0283 100.012 31.4229 99.7871 30.9736C99.5723 30.5244 99.2549 30.2021 98.835 30.0068C98.415 29.8018 97.9023 29.6992 97.2969 29.6992C96.6621 29.6992 96.1006 29.8262 95.6123 30.0801C95.1338 30.334 94.7334 30.6807 94.4111 31.1201C94.0889 31.5596 93.8447 32.0674 93.6787 32.6436C93.5225 33.2197 93.4443 33.835 93.4443 34.4893ZM111.022 27.1504V43H107.478V27.1504H111.022ZM107.243 22.9902C107.243 22.4531 107.419 22.0088 107.771 21.6572C108.132 21.2959 108.63 21.1152 109.265 21.1152C109.89 21.1152 110.383 21.2959 110.744 21.6572C111.105 22.0088 111.286 22.4531 111.286 22.9902C111.286 23.5176 111.105 23.957 110.744 24.3086C110.383 24.6602 109.89 24.8359 109.265 24.8359C108.63 24.8359 108.132 24.6602 107.771 24.3086C107.419 23.957 107.243 23.5176 107.243 22.9902ZM118.449 20.5V43H114.904V20.5H118.449ZM128.293 27.1504L121.394 34.7969L117.614 38.6641L116.691 35.6758L119.548 32.1455L124.03 27.1504H128.293ZM124.792 43L119.65 35.5586L121.877 33.083L128.879 43H124.792ZM139.426 38.708C139.426 38.3564 139.338 38.0391 139.162 37.7559C138.986 37.4629 138.649 37.1992 138.151 36.9648C137.663 36.7305 136.94 36.5156 135.983 36.3203C135.144 36.1348 134.372 35.915 133.669 35.6611C132.976 35.3975 132.38 35.0801 131.882 34.709C131.384 34.3379 130.998 33.8984 130.725 33.3906C130.451 32.8828 130.314 32.2969 130.314 31.6328C130.314 30.9883 130.456 30.3779 130.739 29.8018C131.022 29.2256 131.428 28.7178 131.955 28.2783C132.482 27.8389 133.122 27.4922 133.874 27.2383C134.636 26.9844 135.485 26.8574 136.423 26.8574C137.751 26.8574 138.889 27.082 139.836 27.5312C140.793 27.9707 141.525 28.5713 142.033 29.333C142.541 30.085 142.795 30.9346 142.795 31.8818H139.265C139.265 31.4619 139.157 31.0713 138.942 30.71C138.737 30.3389 138.425 30.041 138.005 29.8164C137.585 29.582 137.058 29.4648 136.423 29.4648C135.817 29.4648 135.314 29.5625 134.914 29.7578C134.523 29.9434 134.23 30.1875 134.035 30.4902C133.85 30.793 133.757 31.125 133.757 31.4863C133.757 31.75 133.806 31.9893 133.903 32.2041C134.011 32.4092 134.187 32.5996 134.431 32.7754C134.675 32.9414 135.007 33.0977 135.427 33.2441C135.856 33.3906 136.394 33.5322 137.038 33.6689C138.249 33.9229 139.289 34.25 140.158 34.6504C141.037 35.041 141.711 35.5488 142.18 36.1738C142.648 36.7891 142.883 37.5703 142.883 38.5176C142.883 39.2207 142.731 39.8652 142.429 40.4512C142.136 41.0273 141.706 41.5303 141.14 41.96C140.573 42.3799 139.895 42.707 139.104 42.9414C138.322 43.1758 137.443 43.293 136.467 43.293C135.031 43.293 133.815 43.0391 132.819 42.5312C131.823 42.0137 131.066 41.3545 130.549 40.5537C130.041 39.7432 129.787 38.9033 129.787 38.0342H133.2C133.239 38.6885 133.42 39.2109 133.742 39.6016C134.074 39.9824 134.484 40.2607 134.973 40.4365C135.471 40.6025 135.983 40.6855 136.511 40.6855C137.146 40.6855 137.678 40.6025 138.107 40.4365C138.537 40.2607 138.864 40.0264 139.089 39.7334C139.313 39.4307 139.426 39.0889 139.426 38.708ZM149.46 20.5V43H145.944V20.5H149.46ZM148.845 34.4893L147.702 34.4746C147.712 33.3809 147.863 32.3701 148.156 31.4424C148.459 30.5146 148.879 29.709 149.416 29.0254C149.963 28.332 150.617 27.7998 151.379 27.4287C152.141 27.0479 152.985 26.8574 153.913 26.8574C154.694 26.8574 155.397 26.9648 156.022 27.1797C156.657 27.3945 157.204 27.7412 157.663 28.2197C158.122 28.6885 158.469 29.3037 158.703 30.0654C158.947 30.8174 159.069 31.7354 159.069 32.8193V43H155.524V32.79C155.524 32.0283 155.412 31.4229 155.188 30.9736C154.973 30.5244 154.655 30.2021 154.235 30.0068C153.815 29.8018 153.303 29.6992 152.697 29.6992C152.062 29.6992 151.501 29.8262 151.013 30.0801C150.534 30.334 150.134 30.6807 149.812 31.1201C149.489 31.5596 149.245 32.0674 149.079 32.6436C148.923 33.2197 148.845 33.835 148.845 34.4893ZM171.579 39.8213V32.2627C171.579 31.6963 171.477 31.208 171.271 30.7979C171.066 30.3877 170.754 30.0703 170.334 29.8457C169.924 29.6211 169.406 29.5088 168.781 29.5088C168.205 29.5088 167.707 29.6064 167.287 29.8018C166.867 29.9971 166.54 30.2607 166.306 30.5928C166.071 30.9248 165.954 31.3008 165.954 31.7207H162.438C162.438 31.0957 162.59 30.4902 162.893 29.9043C163.195 29.3184 163.635 28.7959 164.211 28.3369C164.787 27.8779 165.476 27.5166 166.276 27.2529C167.077 26.9893 167.976 26.8574 168.972 26.8574C170.163 26.8574 171.218 27.0576 172.136 27.458C173.063 27.8584 173.791 28.4639 174.318 29.2744C174.855 30.0752 175.124 31.0811 175.124 32.292V39.3379C175.124 40.0605 175.173 40.71 175.271 41.2861C175.378 41.8525 175.529 42.3457 175.725 42.7656V43H172.106C171.94 42.6191 171.809 42.1357 171.711 41.5498C171.623 40.9541 171.579 40.3779 171.579 39.8213ZM172.092 33.3613L172.121 35.5439H169.587C168.933 35.5439 168.356 35.6074 167.858 35.7344C167.36 35.8516 166.945 36.0273 166.613 36.2617C166.281 36.4961 166.032 36.7793 165.866 37.1113C165.7 37.4434 165.617 37.8193 165.617 38.2393C165.617 38.6592 165.715 39.0449 165.91 39.3965C166.105 39.7383 166.389 40.0068 166.76 40.2021C167.141 40.3975 167.6 40.4951 168.137 40.4951C168.859 40.4951 169.489 40.3486 170.026 40.0557C170.573 39.7529 171.003 39.3867 171.315 38.957C171.628 38.5176 171.794 38.1025 171.813 37.7119L172.956 39.2793C172.839 39.6797 172.639 40.1094 172.355 40.5684C172.072 41.0273 171.701 41.4668 171.242 41.8867C170.793 42.2969 170.251 42.6338 169.616 42.8975C168.991 43.1611 168.269 43.293 167.448 43.293C166.413 43.293 165.49 43.0879 164.68 42.6777C163.869 42.2578 163.234 41.6963 162.775 40.9932C162.316 40.2803 162.087 39.4746 162.087 38.5762C162.087 37.7363 162.243 36.9941 162.556 36.3496C162.878 35.6953 163.347 35.1484 163.962 34.709C164.587 34.2695 165.349 33.9375 166.247 33.7129C167.146 33.4785 168.171 33.3613 169.323 33.3613H172.092Z" fill="#9362F3"/>
<path d="M180.793 21.6719H184.279L190.109 37.7266L195.925 21.6719H199.426L191.501 43H188.703L180.793 21.6719ZM179.035 21.6719H182.448L183.063 36.4229V43H179.035V21.6719ZM197.756 21.6719H201.184V43H197.155V36.4229L197.756 21.6719ZM218.82 39.8359V43H208.098V39.8359H218.82ZM209.313 21.6719V43H205.285V21.6719H209.313Z" fill="#4D3AAB"/>
</svg>
